<svg xmlns="http://www.w3.org/2000/svg" width="420" height="230" viewBox="0 0 420 230">
  <rect width="420" height="230" rx="16" fill="#f7fbff"/>
  <text x="210" y="34" font-family="Arial" font-size="20" text-anchor="middle" fill="#12395d" font-weight="700">Data Life Cycle</text>
  <g font-family="Arial" font-size="14" fill="#17324f" text-anchor="middle">
    <rect x="25" y="85" width="92" height="56" rx="12" fill="#d9ebff" stroke="#8db7e4"/>
    <text x="71" y="108">Capture</text>
    <text x="71" y="126">data</text>

    <rect x="125" y="85" width="92" height="56" rx="12" fill="#dff5eb" stroke="#94d1b1"/>
    <text x="171" y="108">Store</text>
    <text x="171" y="126">and clean</text>

    <rect x="225" y="85" width="92" height="56" rx="12" fill="#fff0cc" stroke="#e6c46b"/>
    <text x="271" y="108">Analyze</text>
    <text x="271" y="126">results</text>

    <rect x="325" y="85" width="70" height="56" rx="12" fill="#f8dddf" stroke="#d59aa0"/>
    <text x="360" y="108">Make</text>
    <text x="360" y="126">choices</text>
  </g>
  <g stroke="#12395d" stroke-width="3" fill="none" stroke-linecap="round">
    <path d="M117 113h8"/>
    <path d="M217 113h8"/>
    <path d="M317 113h8"/>
    <path d="M370 150c0 28-42 43-160 43S50 177 50 150"/>
    <path d="M50 150v-2"/>
  </g>
  <polygon points="44,151 56,151 50,138" fill="#12395d"/>
</svg>
